<svg width="24" height="24" viewBox="0 0 24 24"
     xmlns="http://www.w3.org/2000/svg" aria-labelledby="tC">
  <title id="tC">WFS - Tesela (Q4, trazo fino, bandeja más baja)</title>

  <!-- Marco de tesela (sin relleno) -->
  <rect x="3.5" y="3.5" width="13" height="13" rx="2" ry="2"
        fill="none" stroke="#4A6FA5" stroke-width="0.9"/>

  <!-- Grid sutil -->
  <g stroke="#B0BEC5" stroke-width="0.7">
    <path d="M10 3.5v13M3.5 10h13"/>
  </g>

  <!-- Geometría vectorial -->
  <g fill="none" stroke="#1976D2" stroke-width="0.9"
     stroke-linecap="round" stroke-linejoin="round">
    <path d="M6.5 12l2.5-3 2 1.5 3-2.5"/>
    <circle cx="6.5" cy="12" r="0.6" fill="#1976D2"/>
    <circle cx="9"   cy="9"  r="0.6" fill="#1976D2"/>
    <circle cx="11"  cy="10.5" r="0.6" fill="#1976D2"/>
    <circle cx="14"  cy="8"  r="0.6" fill="#1976D2"/>
  </g>

  <!-- Flecha de descarga (naranja coral) en Q4 -->
  <g fill="none" stroke="#FF7043" stroke-width="0.9"
     stroke-linecap="round" stroke-linejoin="round">
    <!-- Vástago -->
    <path d="M13.25 13.25 V 16.3"/>
    <!-- Punta (sobresale del cuadrado, hasta y=17.1) -->
    <path d="M12.35 16.2 L13.25 17.1 L14.15 16.2"/>
  </g>

  <!-- Bandeja fuera del cuadrado, bajada un poco más (top y=18.9; gap >1.3 respecto al cuadrado) -->
  <path d="M10.6 19.9h5.3c0.7 0 1.1-0.4 1.1-1v-0.6H9.5v0.6c0 0.6 0.4 1 1.1 1z"
        fill="none" stroke="#FF7043" stroke-width="0.9"
        stroke-linecap="round" stroke-linejoin="round"/>
</svg>